<svg width="27" height="21" viewBox="0 0 27 21" fill="none" xmlns="http://www.w3.org/2000/svg">
<path d="M22.7498 0.717472C23.212 0.262706 23.84 0.00478104 24.4967 6.57992e-05C25.1534 -0.00464944 25.7853 0.244228 26.2544 0.692308C26.7234 1.14039 26.9914 1.75123 26.9998 2.39135C27.0082 3.03146 26.7563 3.64879 26.2992 4.10843L13.0731 20.2261C12.8459 20.4646 12.5717 20.656 12.2669 20.7889C11.9621 20.9218 11.633 20.9934 11.2992 20.9996C10.9654 21.0057 10.6337 20.9462 10.324 20.8246C10.0143 20.703 9.73289 20.5219 9.49661 20.2919L0.727534 11.7471C0.261544 11.2926 -0.000158116 10.6763 7.16716e-08 10.0338C0.000158259 9.39123 0.262164 8.77505 0.728378 8.32081C1.19459 7.86656 1.82683 7.61145 2.48599 7.6116C3.14516 7.61176 3.77727 7.86716 4.24326 8.32163L11.1786 15.0838L22.684 0.793119C22.7049 0.767116 22.7274 0.742401 22.7514 0.719117L22.7498 0.717472Z" fill="white"/>
</svg>
