<svg width="216" height="188" viewBox="0 0 216 188" fill="none" xmlns="http://www.w3.org/2000/svg">
<path d="M165 104.636C164.991 124.653 153.113 143.047 134.078 152.522C115.044 161.996 91.9293 161.019 73.905 149.979C50.1027 131.424 46.062 98.889 64.6939 75.8117C83.3257 52.7345 118.158 47.1309 144.099 63.0377C157.365 73.3574 165.018 88.5888 165 104.636Z" fill="white" fill-opacity="0.35"/>
<path fill-rule="evenodd" clip-rule="evenodd" d="M165 101.503C164.997 128.471 146.251 151.814 119.919 157.638C93.587 163.461 66.7453 150.202 55.3697 125.75C43.9941 101.298 51.1417 72.2263 72.5584 55.8366C93.9751 39.447 123.905 40.1445 144.535 57.5141C157.513 68.4393 165.003 84.5387 165 101.503V101.503Z" stroke="white" stroke-width="5"/>
<path d="M121.916 83.2641C122.687 82.4629 123.733 82.0084 124.828 82.0001C125.922 81.9918 126.976 82.4303 127.757 83.2198C128.539 84.0093 128.986 85.0855 129 86.2133C129.014 87.3411 128.594 88.4288 127.832 89.2387L105.788 117.637C105.41 118.057 104.953 118.394 104.445 118.628C103.937 118.862 103.388 118.988 102.832 118.999C102.276 119.01 101.723 118.905 101.207 118.691C100.69 118.477 100.221 118.158 99.8277 117.752L85.2126 102.697C84.4359 101.897 83.9997 100.811 84 99.6786C84.0003 98.5465 84.4369 97.4608 85.214 96.6605C85.991 95.8601 87.0447 95.4107 88.1433 95.4109C89.2419 95.4112 90.2955 95.8612 91.0721 96.6619L102.631 108.576L121.807 83.3974C121.841 83.3516 121.879 83.308 121.919 83.267L121.916 83.2641Z" fill="white"/>
<ellipse cx="198" cy="71" rx="18" ry="17" fill="white" fill-opacity="0.35"/>
<ellipse cx="17" cy="162.5" rx="17" ry="17.5" fill="white" fill-opacity="0.35"/>
<ellipse cx="26" cy="36" rx="9" ry="8" fill="white" fill-opacity="0.35"/>
<ellipse cx="128" cy="8.5" rx="9" ry="8.5" fill="white" fill-opacity="0.35"/>
<ellipse cx="144.5" cy="179.5" rx="7.5" ry="8.5" fill="white" fill-opacity="0.35"/>
</svg>
