<svg width="18" height="25" viewBox="0 0 18 25" fill="none" xmlns="http://www.w3.org/2000/svg">
<path d="M14.576 8.787L13.256 15.684H15.698C16.094 15.684 16.424 15.816 16.688 16.08C16.952 16.344 17.084 16.674 17.084 17.07C17.084 17.444 16.952 17.752 16.688 17.994C16.424 18.236 16.094 18.357 15.698 18.357H12.728L11.804 23.109C11.738 23.417 11.584 23.67 11.342 23.868C11.122 24.066 10.836 24.165 10.484 24.165C10.066 24.165 9.714 24.033 9.428 23.769C9.164 23.505 9.032 23.175 9.032 22.779C9.032 22.625 9.043 22.504 9.065 22.416L9.857 18.357H5.633L4.709 23.109C4.665 23.417 4.522 23.67 4.28 23.868C4.038 24.066 3.763 24.165 3.455 24.165C3.037 24.165 2.696 24.033 2.432 23.769C2.168 23.505 2.036 23.175 2.036 22.779C2.036 22.625 2.047 22.504 2.069 22.416L2.861 18.357H1.442C1.046 18.357 0.716 18.225 0.452 17.961C0.188 17.697 0.0560001 17.367 0.0560001 16.971C0.0560001 16.597 0.188 16.289 0.452 16.047C0.716 15.805 1.046 15.684 1.442 15.684H3.389L4.709 8.787H2.102C1.706 8.787 1.376 8.655 1.112 8.391C0.848 8.127 0.716 7.797 0.716 7.401C0.716 7.027 0.848 6.719 1.112 6.477C1.376 6.235 1.706 6.114 2.102 6.114H5.237L6.128 1.527C6.194 1.219 6.337 0.965998 6.557 0.767998C6.799 0.569998 7.096 0.470998 7.448 0.470998C7.866 0.470998 8.207 0.602998 8.471 0.866999C8.735 1.131 8.867 1.472 8.867 1.89C8.867 2.044 8.856 2.165 8.834 2.253L8.075 6.114H12.266L13.157 1.527C13.201 1.219 13.344 0.965998 13.586 0.767998C13.828 0.569998 14.125 0.470998 14.477 0.470998C14.895 0.470998 15.236 0.602998 15.5 0.866999C15.764 1.131 15.896 1.461 15.896 1.857C15.896 2.011 15.885 2.132 15.863 2.22L15.104 6.114H16.358C16.754 6.114 17.084 6.246 17.348 6.51C17.612 6.774 17.744 7.104 17.744 7.5C17.744 7.874 17.612 8.182 17.348 8.424C17.084 8.666 16.754 8.787 16.358 8.787H14.576ZM10.385 15.684L11.738 8.787H7.547L6.194 15.684H10.385Z" fill="#ADB3BC"/>
</svg>
