<svg width="29" height="29" viewBox="0 0 29 29" fill="none" xmlns="http://www.w3.org/2000/svg">
<path opacity="0.4" d="M19.0568 2.35419H9.20457C4.91999 2.35419 2.36572 4.90845 2.36572 9.19304V19.0452C2.36572 23.3298 4.91999 25.8841 9.20457 25.8841H19.0568C23.3413 25.8841 25.8956 23.3298 25.8956 19.0452V9.19304C25.8956 4.90845 23.3413 2.35419 19.0568 2.35419Z" fill="#F54748"/>
<path d="M11.9001 13.1246H8.78082C8.03926 13.1246 7.43896 13.7248 7.43896 14.4664V20.4931H11.9001V13.1246Z" fill="#F54748"/>
<path opacity="0.4" d="M15.0192 7.76874H13.23C12.4885 7.76874 11.8882 8.36907 11.8882 9.11063V20.4813H16.3493V9.11063C16.3493 8.36907 15.7608 7.76874 15.0192 7.76874Z" fill="#F54748"/>
<path d="M19.4806 15.1255H16.3613V20.4813H20.8225V16.4674C20.8107 15.7259 20.2104 15.1255 19.4806 15.1255Z" fill="#F54748"/>
</svg>
