<svg width="29" height="29" viewBox="0 0 29 29" fill="none" xmlns="http://www.w3.org/2000/svg">
<path opacity="0.4" d="M24.7188 8.23954V20.0104C24.7188 23.5416 22.9531 25.8958 18.8333 25.8958H9.41667C5.29688 25.8958 3.53125 23.5416 3.53125 20.0104V8.23954C3.53125 4.70829 5.29688 2.35413 9.41667 2.35413H18.8333C22.9531 2.35413 24.7188 4.70829 24.7188 8.23954Z" fill="#2FA9ED"/>
<path d="M18.245 2.35413V11.606C18.245 12.1239 17.6328 12.3829 17.2562 12.0415L14.5254 9.52256C14.3018 9.31068 13.9486 9.31068 13.7249 9.52256L10.9942 12.0415C10.6175 12.3947 10.0054 12.1239 10.0054 11.606V2.35413H18.245Z" fill="#2FA9ED"/>
<path d="M20.5988 17.3619H15.5962C15.1136 17.3619 14.7134 16.9617 14.7134 16.4791C14.7134 15.9965 15.1136 15.5963 15.5962 15.5963H20.5988C21.0814 15.5963 21.4816 15.9965 21.4816 16.4791C21.4816 16.9617 21.0814 17.3619 20.5988 17.3619Z" fill="#2FA9ED"/>
<path d="M20.599 22.0703H10.5937C10.1111 22.0703 9.71094 21.6701 9.71094 21.1875C9.71094 20.7049 10.1111 20.3047 10.5937 20.3047H20.599C21.0816 20.3047 21.4818 20.7049 21.4818 21.1875C21.4818 21.6701 21.0816 22.0703 20.599 22.0703Z" fill="#2FA9ED"/>
</svg>
