<svg width="31" height="31" viewBox="0 0 31 31" fill="none" xmlns="http://www.w3.org/2000/svg">
<path d="M6.45801 12.9167H9.04134C11.6247 12.9167 12.9163 11.625 12.9163 9.04167V6.45834C12.9163 3.875 11.6247 2.58334 9.04134 2.58334H6.45801C3.87467 2.58334 2.58301 3.875 2.58301 6.45834V9.04167C2.58301 11.625 3.87467 12.9167 6.45801 12.9167Z" stroke="#ADB3BC" stroke-width="3" stroke-miterlimit="10" stroke-linecap="round" stroke-linejoin="round"/>
<path d="M21.958 12.9167H24.5413C27.1247 12.9167 28.4163 11.625 28.4163 9.04167V6.45834C28.4163 3.875 27.1247 2.58334 24.5413 2.58334H21.958C19.3747 2.58334 18.083 3.875 18.083 6.45834V9.04167C18.083 11.625 19.3747 12.9167 21.958 12.9167Z" stroke="#ADB3BC" stroke-width="3" stroke-miterlimit="10" stroke-linecap="round" stroke-linejoin="round"/>
<path d="M21.958 28.4167H24.5413C27.1247 28.4167 28.4163 27.125 28.4163 24.5417V21.9583C28.4163 19.375 27.1247 18.0833 24.5413 18.0833H21.958C19.3747 18.0833 18.083 19.375 18.083 21.9583V24.5417C18.083 27.125 19.3747 28.4167 21.958 28.4167Z" stroke="#ADB3BC" stroke-width="3" stroke-miterlimit="10" stroke-linecap="round" stroke-linejoin="round"/>
<path d="M6.45801 28.4167H9.04134C11.6247 28.4167 12.9163 27.125 12.9163 24.5417V21.9583C12.9163 19.375 11.6247 18.0833 9.04134 18.0833H6.45801C3.87467 18.0833 2.58301 19.375 2.58301 21.9583V24.5417C2.58301 27.125 3.87467 28.4167 6.45801 28.4167Z" stroke="#ADB3BC" stroke-width="3" stroke-miterlimit="10" stroke-linecap="round" stroke-linejoin="round"/>
</svg>
