<svg width="26" height="26" viewBox="0 0 26 26" fill="none" xmlns="http://www.w3.org/2000/svg">
<path d="M17.5395 2.16669H8.46116C4.51783 2.16669 2.16699 4.51752 2.16699 8.46085V17.5284C2.16699 21.4825 4.51783 23.8334 8.46116 23.8334H17.5287C21.472 23.8334 23.8228 21.4825 23.8228 17.5392V8.46085C23.8337 4.51752 21.4828 2.16669 17.5395 2.16669ZM8.26616 19.6625C8.26616 20.1067 7.89783 20.475 7.45366 20.475C7.00949 20.475 6.64116 20.1067 6.64116 19.6625V17.42C6.64116 16.9759 7.00949 16.6075 7.45366 16.6075C7.89783 16.6075 8.26616 16.9759 8.26616 17.42V19.6625ZM13.8128 19.6625C13.8128 20.1067 13.4445 20.475 13.0003 20.475C12.5562 20.475 12.1878 20.1067 12.1878 19.6625V15.1667C12.1878 14.7225 12.5562 14.3542 13.0003 14.3542C13.4445 14.3542 13.8128 14.7225 13.8128 15.1667V19.6625ZM19.3595 19.6625C19.3595 20.1067 18.9912 20.475 18.547 20.475C18.1028 20.475 17.7345 20.1067 17.7345 19.6625V12.9242C17.7345 12.48 18.1028 12.1117 18.547 12.1117C18.9912 12.1117 19.3595 12.48 19.3595 12.9242V19.6625ZM19.3595 9.50085C19.3595 9.94502 18.9912 10.3134 18.547 10.3134C18.1028 10.3134 17.7345 9.94502 17.7345 9.50085V8.45002C14.972 11.2884 11.5162 13.2925 7.64866 14.2567C7.58366 14.2784 7.51866 14.2784 7.45366 14.2784C7.08533 14.2784 6.76033 14.0292 6.66283 13.6609C6.55449 13.2275 6.81449 12.7834 7.25866 12.675C10.9095 11.765 14.1595 9.84752 16.7378 7.13919H15.3837C14.9395 7.13919 14.5712 6.77085 14.5712 6.32669C14.5712 5.88252 14.9395 5.51419 15.3837 5.51419H18.5578C18.6012 5.51419 18.6337 5.53585 18.677 5.53585C18.7312 5.54669 18.7853 5.54669 18.8395 5.56835C18.8937 5.59002 18.937 5.62252 18.9912 5.65502C19.0237 5.67669 19.0562 5.68752 19.0887 5.70919C19.0995 5.72002 19.0995 5.73085 19.1103 5.73085C19.1537 5.77419 19.1862 5.81752 19.2187 5.86085C19.2512 5.90419 19.2837 5.93669 19.2945 5.98002C19.3162 6.02335 19.3162 6.06669 19.327 6.12085C19.3378 6.17502 19.3595 6.22919 19.3595 6.29419C19.3595 6.30502 19.3703 6.31585 19.3703 6.32669V9.50085H19.3595Z" fill="#F54748"/>
</svg>
