<svg width="29" height="29" viewBox="0 0 29 29" fill="none" xmlns="http://www.w3.org/2000/svg">
<path opacity="0.4" d="M20.0103 9.12235C19.7866 9.12235 19.563 9.03996 19.3864 8.86339C19.045 8.52204 19.045 7.95704 19.3864 7.61569L21.7994 5.20267C19.7277 3.43704 17.0558 2.35413 14.1248 2.35413C7.62734 2.35413 2.354 7.62746 2.354 14.125C2.354 20.6225 7.62734 25.8958 14.1248 25.8958C20.6223 25.8958 25.8957 20.6225 25.8957 14.125C25.8957 11.194 24.8127 8.52205 23.0471 6.45038L20.6341 8.86339C20.4575 9.03996 20.2339 9.12235 20.0103 9.12235Z" fill="#58C863"/>
<path d="M16.1847 13.9131L15.0076 13.5011V10.888H15.1018C15.7021 10.888 16.1847 11.4177 16.1847 12.0651C16.1847 12.5477 16.5849 12.9479 17.0675 12.9479C17.5501 12.9479 17.9504 12.5477 17.9504 12.0651C17.9504 10.4407 16.6791 9.1224 15.1018 9.1224H15.0076V8.82812C15.0076 8.34552 14.6074 7.94531 14.1248 7.94531C13.6422 7.94531 13.242 8.34552 13.242 8.82812V9.1224H12.8889C11.4646 9.1224 10.2993 10.323 10.2993 11.8061C10.2993 13.5247 11.2998 14.0779 12.0649 14.3486L13.242 14.7606V17.3738H13.1479C12.5476 17.3738 12.0649 16.8441 12.0649 16.1967C12.0649 15.7141 11.6647 15.3139 11.1821 15.3139C10.6995 15.3139 10.2993 15.7141 10.2993 16.1967C10.2993 17.821 11.5706 19.1394 13.1479 19.1394H13.242V19.4336C13.242 19.9163 13.6422 20.3165 14.1248 20.3165C14.6074 20.3165 15.0076 19.9163 15.0076 19.4336V19.1394H15.3608C16.785 19.1394 17.9504 17.9388 17.9504 16.4556C17.9504 14.7253 16.9498 14.1721 16.1847 13.9131ZM12.6417 12.6654C12.2415 12.5242 12.0649 12.4418 12.0649 11.7944C12.0649 11.2882 12.4416 10.8762 12.8889 10.8762H13.242V12.8655L12.6417 12.6654ZM15.3608 17.362H15.0076V15.3727L15.608 15.5846C16.0082 15.7258 16.1847 15.8082 16.1847 16.4556C16.1847 16.95 15.8081 17.362 15.3608 17.362Z" fill="#58C863"/>
<path d="M26.7081 2.01283C26.6139 1.80095 26.4491 1.62439 26.2255 1.53023C26.1195 1.48314 26.0018 1.45959 25.8841 1.45959H21.1758C20.6932 1.45959 20.293 1.8598 20.293 2.34241C20.293 2.82501 20.6932 3.22522 21.1758 3.22522H23.7536L21.7879 5.19096C22.2352 5.57939 22.6472 5.99137 23.0356 6.43866L25.0013 4.47293V7.06251C25.0013 7.54512 25.4015 7.94533 25.8841 7.94533C26.3667 7.94533 26.7669 7.54512 26.7669 7.06251V2.35418C26.7787 2.23647 26.7552 2.13053 26.7081 2.01283Z" fill="#58C863"/>
</svg>
