<svg width="31" height="31" viewBox="0 0 31 31" fill="none" xmlns="http://www.w3.org/2000/svg">
<path d="M15.9167 28.8333C23.0503 28.8333 28.8333 23.0503 28.8333 15.9167C28.8333 8.78299 23.0503 3 15.9167 3C8.78299 3 3 8.78299 3 15.9167C3 23.0503 8.78299 28.8333 15.9167 28.8333Z" stroke="#ADB3BC" stroke-width="3" stroke-linecap="round" stroke-linejoin="round"/>
<path d="M15.884 17.596C16.028 17.812 16.1 18.016 16.1 18.208C16.1 18.464 15.992 18.68 15.776 18.856C15.568 19.024 15.324 19.108 15.044 19.108C14.852 19.108 14.672 19.064 14.504 18.976C14.336 18.888 14.192 18.756 14.072 18.58L12.512 16.3C12.4 16.14 12.28 16.024 12.152 15.952C12.032 15.872 11.888 15.832 11.72 15.832H10.94V17.98C10.94 18.316 10.844 18.584 10.652 18.784C10.46 18.976 10.196 19.072 9.86 19.072C9.524 19.072 9.256 18.976 9.056 18.784C8.864 18.584 8.768 18.316 8.768 17.98V11.56C8.768 11.232 8.856 10.98 9.032 10.804C9.208 10.628 9.46 10.54 9.788 10.54H12.8C13.824 10.54 14.592 10.764 15.104 11.212C15.624 11.652 15.884 12.292 15.884 13.132C15.884 13.772 15.708 14.316 15.356 14.764C15.004 15.204 14.508 15.5 13.868 15.652C14.132 15.692 14.36 15.78 14.552 15.916C14.752 16.052 14.948 16.256 15.14 16.528L15.884 17.596ZM12.452 14.176C12.94 14.176 13.288 14.1 13.496 13.948C13.712 13.796 13.82 13.548 13.82 13.204C13.82 12.852 13.712 12.6 13.496 12.448C13.288 12.288 12.94 12.208 12.452 12.208H10.916V14.176H12.452ZM21.0204 12.952C21.5244 12.952 21.9724 13.084 22.3644 13.348C22.7644 13.604 23.0724 13.968 23.2884 14.44C23.5124 14.912 23.6244 15.452 23.6244 16.06C23.6244 16.668 23.5124 17.204 23.2884 17.668C23.0724 18.124 22.7684 18.476 22.3764 18.724C21.9844 18.972 21.5324 19.096 21.0204 19.096C20.6444 19.096 20.2964 19.02 19.9764 18.868C19.6644 18.716 19.4204 18.512 19.2444 18.256V20.296C19.2444 20.576 19.1484 20.8 18.9564 20.968C18.7644 21.136 18.5124 21.22 18.2004 21.22C17.8724 21.22 17.6084 21.128 17.4084 20.944C17.2084 20.768 17.1084 20.54 17.1084 20.26V13.96C17.1084 13.664 17.2004 13.428 17.3844 13.252C17.5764 13.068 17.8324 12.976 18.1524 12.976C18.4564 12.976 18.7004 13.056 18.8844 13.216C19.0764 13.376 19.1844 13.588 19.2084 13.852C19.3764 13.572 19.6204 13.352 19.9404 13.192C20.2684 13.032 20.6284 12.952 21.0204 12.952ZM20.3724 17.5C20.7404 17.5 21.0204 17.376 21.2124 17.128C21.4124 16.88 21.5124 16.524 21.5124 16.06C21.5124 15.572 21.4124 15.2 21.2124 14.944C21.0124 14.68 20.7284 14.548 20.3604 14.548C19.9924 14.548 19.7084 14.676 19.5084 14.932C19.3084 15.188 19.2084 15.556 19.2084 16.036C19.2084 16.508 19.3084 16.872 19.5084 17.128C19.7084 17.376 19.9964 17.5 20.3724 17.5Z" fill="#ADB3BC"/>
</svg>
