<svg width="17" height="17" viewBox="0 0 17 17" fill="none" xmlns="http://www.w3.org/2000/svg">
<path d="M7.7915 1.4165H6.37484C2.83317 1.4165 1.4165 2.83317 1.4165 6.37484V10.6248C1.4165 14.1665 2.83317 15.5832 6.37484 15.5832H10.6248C14.1665 15.5832 15.5832 14.1665 15.5832 10.6248V9.20817" stroke="white" stroke-width="1.5" stroke-linecap="round" stroke-linejoin="round"/>
<path d="M11.3616 2.13922L5.77991 7.72089C5.56741 7.93339 5.35491 8.35131 5.31241 8.65589L5.00783 10.788C4.8945 11.5601 5.43991 12.0984 6.212 11.9921L8.34408 11.6876C8.64158 11.6451 9.0595 11.4326 9.27908 11.2201L14.8607 5.63839C15.8241 4.67506 16.2774 3.55589 14.8607 2.13922C13.4441 0.722557 12.3249 1.17589 11.3616 2.13922Z" stroke="white" stroke-width="1.5" stroke-miterlimit="10" stroke-linecap="round" stroke-linejoin="round"/>
<path d="M10.5615 2.93945C11.0361 4.63237 12.3607 5.95695 14.0607 6.43862" stroke="white" stroke-width="1.5" stroke-miterlimit="10" stroke-linecap="round" stroke-linejoin="round"/>
</svg>
