<svg width="35" height="35" viewBox="0 0 35 35" fill="none" xmlns="http://www.w3.org/2000/svg">
<path opacity="0.4" d="M26.3083 19.7604C25.6958 20.3583 25.3458 21.2187 25.4333 22.1375C25.5645 23.7125 27.0083 24.8645 28.5833 24.8645H31.3541V26.6C31.3541 29.6187 28.8895 32.0833 25.8708 32.0833H9.12909C6.11034 32.0833 3.64575 29.6187 3.64575 26.6V16.7854C3.64575 13.7667 6.11034 11.3021 9.12909 11.3021H25.8708C28.8895 11.3021 31.3541 13.7667 31.3541 16.7854V18.8854H28.4083C27.5916 18.8854 26.8478 19.2062 26.3083 19.7604Z" fill="#58C863"/>
<path d="M21.6562 5.76041V11.3021H9.12909C6.11034 11.3021 3.64575 13.7667 3.64575 16.7854V11.4334C3.64575 9.69793 4.71034 8.15204 6.32909 7.53954L17.9083 3.16454C19.7166 2.4937 21.6562 3.82083 21.6562 5.76041Z" fill="#58C863"/>
<path d="M32.8999 20.3729V23.3771C32.8999 24.1792 32.2582 24.8354 31.4416 24.8646H28.5832C27.0082 24.8646 25.5645 23.7125 25.4332 22.1375C25.3457 21.2187 25.6957 20.3583 26.3082 19.7604C26.8478 19.2062 27.5916 18.8854 28.4082 18.8854H31.4416C32.2582 18.9146 32.8999 19.5708 32.8999 20.3729Z" fill="#58C863"/>
<path d="M20.4166 18.5938H10.2083C9.61034 18.5938 9.1145 18.0979 9.1145 17.5C9.1145 16.9021 9.61034 16.4062 10.2083 16.4062H20.4166C21.0145 16.4062 21.5103 16.9021 21.5103 17.5C21.5103 18.0979 21.0145 18.5938 20.4166 18.5938Z" fill="#58C863"/>
</svg>
