<svg width="13" height="17" viewBox="0 0 13 17" fill="none" xmlns="http://www.w3.org/2000/svg">
<path d="M12.9998 0.876086C12.9997 0.848241 12.9983 0.820421 12.9955 0.792625C12.9941 0.779142 12.9915 0.766099 12.9896 0.752763C12.9873 0.737668 12.9855 0.722573 12.9825 0.707625C12.9794 0.692677 12.9752 0.678241 12.9714 0.663659C12.968 0.650397 12.9649 0.637134 12.9608 0.624091C12.9565 0.609875 12.9509 0.596172 12.9457 0.58225C12.9409 0.56906 12.9364 0.555798 12.9309 0.542828C12.9253 0.529858 12.9188 0.517474 12.9127 0.504724C12.9062 0.491461 12.9001 0.477905 12.8928 0.464862C12.8862 0.452772 12.8786 0.441414 12.8714 0.42969C12.8634 0.41672 12.8559 0.403603 12.8472 0.391C12.8385 0.378323 12.8287 0.366453 12.8193 0.354216C12.811 0.343444 12.8033 0.332379 12.7943 0.321901C12.7766 0.30099 12.7579 0.280891 12.7382 0.261668C12.7368 0.260349 12.7357 0.258884 12.7344 0.257565C12.733 0.256172 12.7314 0.255073 12.73 0.253754C12.7102 0.234703 12.6895 0.216555 12.6679 0.19931C12.6573 0.190884 12.6462 0.183629 12.6354 0.175716C12.6225 0.166409 12.61 0.15681 12.5966 0.148091C12.5838 0.13981 12.5706 0.132703 12.5575 0.125082C12.5451 0.117901 12.5331 0.110427 12.5204 0.103832C12.5073 0.0970172 12.4939 0.0913017 12.4805 0.0852198C12.467 0.0789914 12.4537 0.0724698 12.4399 0.0669009C12.427 0.0617716 12.4139 0.0576681 12.401 0.053125C12.386 0.0478492 12.3713 0.0423535 12.356 0.0378836C12.3433 0.0341466 12.3303 0.0314354 12.3174 0.0282112C12.3015 0.0243276 12.286 0.0200776 12.2699 0.017C12.2555 0.0142155 12.2409 0.0126035 12.2264 0.0105517C12.2117 0.00842673 12.1971 0.00578882 12.1821 0.00439658C12.1569 0.00214948 12.1317 0.000902698 12.1065 0.00065947C12.1019 0.00065947 12.0976 0 12.093 0H9.37206C9.13152 3.47506e-09 8.90082 0.0926414 8.73073 0.257544C8.56064 0.422447 8.46508 0.646103 8.46508 0.87931C8.46508 1.11252 8.56064 1.33617 8.73073 1.50108C8.90082 1.66598 9.13152 1.75862 9.37206 1.75862H9.90341L8.76574 2.8615C8.11141 2.37143 7.35045 2.03242 6.5407 1.87022C5.73095 1.70803 4.89372 1.72693 4.09263 1.92547C3.29155 2.12402 2.54768 2.49699 1.91757 3.01604C1.28746 3.5351 0.787689 4.18658 0.456229 4.92097C0.124769 5.65536 -0.0296533 6.45334 0.00469675 7.25427C0.0390468 8.0552 0.261266 8.838 0.654466 9.54318C1.04767 10.2484 1.6015 10.8574 2.27388 11.3239C2.94626 11.7905 3.71949 12.1023 4.53481 12.2357V13.1897H3.02317C2.78263 13.1897 2.55193 13.2823 2.38184 13.4472C2.21175 13.6121 2.11619 13.8358 2.11619 14.069C2.11619 14.3022 2.21175 14.5258 2.38184 14.6907C2.55193 14.8556 2.78263 14.9483 3.02317 14.9483H4.53481V16.1207C4.53481 16.3539 4.63037 16.5776 4.80046 16.7425C4.97056 16.9074 5.20125 17 5.4418 17C5.68235 17 5.91304 16.9074 6.08313 16.7425C6.25323 16.5776 6.34878 16.3539 6.34878 16.1207V14.9483H7.86042C8.10097 14.9483 8.33167 14.8556 8.50176 14.6907C8.67185 14.5258 8.76741 14.3022 8.76741 14.069C8.76741 13.8358 8.67185 13.6121 8.50176 13.4472C8.33167 13.2823 8.10097 13.1897 7.86042 13.1897H6.34878V12.2357C7.23936 12.0905 8.0786 11.7325 8.79069 11.1941C9.50279 10.6556 10.0653 9.95365 10.4275 9.15161C10.7896 8.34956 10.9399 7.47269 10.8649 6.6002C10.7899 5.7277 10.4919 4.88707 9.99773 4.15423L11.186 3.00211V3.51724C11.186 3.75045 11.2816 3.97411 11.4517 4.13901C11.6218 4.30391 11.8525 4.39655 12.093 4.39655C12.3336 4.39655 12.5643 4.30391 12.7344 4.13901C12.9044 3.97411 13 3.75045 13 3.51724V0.87931L12.9998 0.876086ZM5.4418 10.5517C4.72426 10.5517 4.02284 10.3454 3.42622 9.95896C2.82961 9.57248 2.36461 9.02316 2.09002 8.38047C1.81543 7.73778 1.74359 7.03058 1.88357 6.3483C2.02356 5.66603 2.36908 5.03931 2.87646 4.54742C3.38384 4.05552 4.03027 3.72054 4.73402 3.58482C5.43777 3.44911 6.16723 3.51876 6.83015 3.78498C7.49307 4.05119 8.05968 4.502 8.45832 5.08041C8.85696 5.65882 9.06974 6.33884 9.06974 7.03448C9.06863 7.96699 8.68605 8.86099 8.00592 9.52037C7.32579 10.1797 6.40365 10.5507 5.4418 10.5517Z" fill="#ABABAB"/>
</svg>
