<svg width="35" height="35" viewBox="0 0 35 35" fill="none" xmlns="http://www.w3.org/2000/svg">
<path opacity="0.4" d="M17.5 7.72918V31.1063C17.7479 31.1063 18.0104 31.0625 18.2146 30.9458L18.273 30.9167C21.073 29.3855 25.9583 27.7813 29.1229 27.3584L29.5458 27.3C30.9458 27.125 32.0833 25.8125 32.0833 24.4125V6.79583C32.0833 5.06041 30.6688 3.74793 28.9334 3.89376C25.8709 4.14168 21.2334 5.68755 18.6375 7.3063L18.273 7.52499C18.0542 7.65624 17.7771 7.72918 17.5 7.72918Z" fill="#F54748"/>
<path d="M2.91666 6.81036V24.4125C2.91666 25.8125 4.05414 27.1249 5.45414 27.2999L5.93542 27.3583C9.11458 27.7812 14.0146 29.3999 16.8146 30.9458C17.0042 31.0624 17.2375 31.1062 17.5 31.1062V7.72911C17.2229 7.72911 16.9458 7.65618 16.727 7.52493L16.4791 7.36453C13.8833 5.7312 9.23121 4.17079 6.16871 3.90829H6.08121C4.3458 3.76245 2.91666 5.06036 2.91666 6.81036Z" fill="#F54748"/>
<path d="M27.7083 4.05421V10.3104C27.7083 10.8938 27.0666 11.2437 26.5708 10.9229L24.7917 9.74166L23.0125 10.9229C22.5313 11.2437 21.875 10.8938 21.875 10.3104V5.71664C23.7854 4.95831 25.9146 4.34588 27.7083 4.05421Z" fill="#F54748"/>
</svg>
