<svg width="29" height="29" viewBox="0 0 29 29" fill="none" xmlns="http://www.w3.org/2000/svg">
<path opacity="0.4" d="M11.8532 3.31937L3.69598 9.85217C2.77785 10.582 2.18931 12.1239 2.38941 13.2775L3.95494 22.6471C4.23744 24.3185 5.83826 25.6722 7.53326 25.6722H20.7166C22.3998 25.6722 24.0124 24.3067 24.2949 22.6471L25.8605 13.2775C26.0488 12.1239 25.4603 10.582 24.5539 9.85217L16.3967 3.33112C15.1372 2.31883 13.1009 2.31885 11.8532 3.31937Z" fill="#F54748"/>
<path d="M14.1251 18.2448C15.7503 18.2448 17.0678 16.9273 17.0678 15.3021C17.0678 13.6769 15.7503 12.3594 14.1251 12.3594C12.4999 12.3594 11.1824 13.6769 11.1824 15.3021C11.1824 16.9273 12.4999 18.2448 14.1251 18.2448Z" fill="#F54748"/>
</svg>
