<svg width="23" height="23" viewBox="0 0 23 23" fill="none" xmlns="http://www.w3.org/2000/svg">
<path d="M4.25 9.66667H6.41667C8.58333 9.66667 9.66667 8.58333 9.66667 6.41667V4.25C9.66667 2.08333 8.58333 1 6.41667 1H4.25C2.08333 1 1 2.08333 1 4.25V6.41667C1 8.58333 2.08333 9.66667 4.25 9.66667Z" stroke="#CCCED3" stroke-width="2" stroke-miterlimit="10" stroke-linecap="round" stroke-linejoin="round"/>
<path d="M15.917 9.66667H18.0837C20.2503 9.66667 21.3337 8.58333 21.3337 6.41667V4.25C21.3337 2.08333 20.2503 1 18.0837 1H15.917C13.7503 1 12.667 2.08333 12.667 4.25V6.41667C12.667 8.58333 13.7503 9.66667 15.917 9.66667Z" stroke="#CCCED3" stroke-width="2" stroke-miterlimit="10" stroke-linecap="round" stroke-linejoin="round"/>
<path d="M15.917 21.3334H18.0837C20.2503 21.3334 21.3337 20.25 21.3337 18.0834V15.9167C21.3337 13.75 20.2503 12.6667 18.0837 12.6667H15.917C13.7503 12.6667 12.667 13.75 12.667 15.9167V18.0834C12.667 20.25 13.7503 21.3334 15.917 21.3334Z" stroke="#CCCED3" stroke-width="2" stroke-miterlimit="10" stroke-linecap="round" stroke-linejoin="round"/>
<path d="M4.25 21.3334H6.41667C8.58333 21.3334 9.66667 20.25 9.66667 18.0834V15.9167C9.66667 13.75 8.58333 12.6667 6.41667 12.6667H4.25C2.08333 12.6667 1 13.75 1 15.9167V18.0834C1 20.25 2.08333 21.3334 4.25 21.3334Z" stroke="#CCCED3" stroke-width="2" stroke-miterlimit="10" stroke-linecap="round" stroke-linejoin="round"/>
</svg>
