<svg width="22" height="22" viewBox="0 0 22 22" fill="none" xmlns="http://www.w3.org/2000/svg">
<path d="M3.6031 9.60832H6.00516C8.40723 9.60832 9.60826 8.40728 9.60826 6.0052V3.60312C9.60826 1.20104 8.40723 0 6.00516 0H3.6031C1.20103 0 0 1.20104 0 3.60312V6.0052C0 8.40728 1.20103 9.60832 3.6031 9.60832Z" fill="#F54748"/>
<path d="M15.3248 9.60832H17.7268C20.1289 9.60832 21.3299 8.40728 21.3299 6.0052V3.60312C21.3299 1.20104 20.1289 0 17.7268 0H15.3248C12.9227 0 11.7217 1.20104 11.7217 3.60312V6.0052C11.7217 8.40728 12.9227 9.60832 15.3248 9.60832Z" fill="#F54748"/>
<path d="M15.3248 21.33H17.7268C20.1289 21.33 21.3299 20.129 21.3299 17.7269V15.3248C21.3299 12.9227 20.1289 11.7217 17.7268 11.7217H15.3248C12.9227 11.7217 11.7217 12.9227 11.7217 15.3248V17.7269C11.7217 20.129 12.9227 21.33 15.3248 21.33Z" fill="#F54748"/>
<path d="M3.6031 21.33H6.00516C8.40723 21.33 9.60826 20.129 9.60826 17.7269V15.3248C9.60826 12.9227 8.40723 11.7217 6.00516 11.7217H3.6031C1.20103 11.7217 0 12.9227 0 15.3248V17.7269C0 20.129 1.20103 21.33 3.6031 21.33Z" fill="#F54748"/>
</svg>
