<svg width="28" height="28" viewBox="0 0 28 28" fill="none" xmlns="http://www.w3.org/2000/svg">
<path d="M2.3335 25.6666H25.6668" stroke="#ADB3BC" stroke-width="2" stroke-miterlimit="10" stroke-linecap="round" stroke-linejoin="round"/>
<path d="M3.44189 25.6666L3.50023 11.6316C3.50023 10.9199 3.83856 10.2433 4.39856 9.80001L12.5652 3.44166C13.4052 2.78833 14.5836 2.78833 15.4352 3.44166L23.6019 9.78833C24.1736 10.2317 24.5002 10.9083 24.5002 11.6316V25.6666" stroke="#ADB3BC" stroke-width="2" stroke-miterlimit="10" stroke-linejoin="round"/>
<path d="M15.1668 19.8334H12.8335C11.8652 19.8334 11.0835 20.615 11.0835 21.5834V25.6667H16.9168V21.5834C16.9168 20.615 16.1352 19.8334 15.1668 19.8334Z" stroke="#ADB3BC" stroke-width="2" stroke-miterlimit="10" stroke-linejoin="round"/>
<path d="M11.0835 16.0417H8.75016C8.1085 16.0417 7.5835 15.5167 7.5835 14.875V13.125C7.5835 12.4834 8.1085 11.9584 8.75016 11.9584H11.0835C11.7252 11.9584 12.2502 12.4834 12.2502 13.125V14.875C12.2502 15.5167 11.7252 16.0417 11.0835 16.0417Z" stroke="#ADB3BC" stroke-width="2" stroke-miterlimit="10" stroke-linejoin="round"/>
<path d="M19.25 16.0417H16.9167C16.275 16.0417 15.75 15.5167 15.75 14.875V13.125C15.75 12.4834 16.275 11.9584 16.9167 11.9584H19.25C19.8917 11.9584 20.4167 12.4834 20.4167 13.125V14.875C20.4167 15.5167 19.8917 16.0417 19.25 16.0417Z" stroke="#ADB3BC" stroke-width="2" stroke-miterlimit="10" stroke-linejoin="round"/>
<path d="M22.1664 8.16663L22.1314 4.66663H16.998" stroke="#ADB3BC" stroke-width="2" stroke-miterlimit="10" stroke-linecap="round" stroke-linejoin="round"/>
</svg>
