<svg width="19" height="24" viewBox="0 0 19 24" fill="none" xmlns="http://www.w3.org/2000/svg">
<path d="M9.33333 11.6667C8.05 11.6667 7 10.6167 7 9.33333C7 8.05 8.05 7 9.33333 7C10.6167 7 11.6667 8.05 11.6667 9.33333C11.6667 10.6167 10.6167 11.6667 9.33333 11.6667ZM16.3333 9.56667C16.3333 5.33167 13.2417 2.33333 9.33333 2.33333C5.425 2.33333 2.33333 5.33167 2.33333 9.56667C2.33333 12.2967 4.60833 15.9133 9.33333 20.23C14.0583 15.9133 16.3333 12.2967 16.3333 9.56667ZM9.33333 0C14.2333 0 18.6667 3.75667 18.6667 9.56667C18.6667 13.44 15.5517 18.025 9.33333 23.3333C3.115 18.025 0 13.44 0 9.56667C0 3.75667 4.43333 0 9.33333 0Z" fill="#D1D5DB"/>
</svg>
