<svg width="20" height="27" viewBox="0 0 20 27" fill="none" xmlns="http://www.w3.org/2000/svg">
<path d="M17.5 9H16.25V6.42857C16.25 2.88 13.45 0 10 0C6.55 0 3.75 2.88 3.75 6.42857V9H2.5C1.125 9 0 10.1571 0 11.5714V24.4286C0 25.8429 1.125 27 2.5 27H17.5C18.875 27 20 25.8429 20 24.4286V11.5714C20 10.1571 18.875 9 17.5 9ZM6.25 6.42857C6.25 4.29429 7.925 2.57143 10 2.57143C12.075 2.57143 13.75 4.29429 13.75 6.42857V9H6.25V6.42857ZM17.5 24.4286H2.5V11.5714H17.5V24.4286ZM10 20.5714C11.375 20.5714 12.5 19.4143 12.5 18C12.5 16.5857 11.375 15.4286 10 15.4286C8.625 15.4286 7.5 16.5857 7.5 18C7.5 19.4143 8.625 20.5714 10 20.5714Z" fill="#D1D5DB"/>
</svg>
