<svg width="35" height="35" viewBox="0 0 35 35" fill="none" xmlns="http://www.w3.org/2000/svg">
<path opacity="0.4" d="M29.225 9.94579L20.825 4.06871C18.5354 2.46454 15.0208 2.55204 12.8188 4.25829L5.51252 9.96038C4.05418 11.0979 2.9021 13.4312 2.9021 15.2687V25.3312C2.9021 29.05 5.92085 32.0833 9.6396 32.0833H25.3604C29.0792 32.0833 32.0979 29.0645 32.0979 25.3458V15.4583C32.0979 13.4895 30.8292 11.0687 29.225 9.94579Z" fill="#F54748"/>
<path d="M17.5 27.3438C16.9021 27.3438 16.4062 26.8479 16.4062 26.25V21.875C16.4062 21.2771 16.9021 20.7812 17.5 20.7812C18.0979 20.7812 18.5938 21.2771 18.5938 21.875V26.25C18.5938 26.8479 18.0979 27.3438 17.5 27.3438Z" fill="#F54748"/>
</svg>
