<svg width="22" height="22" viewBox="0 0 22 22" fill="none" xmlns="http://www.w3.org/2000/svg">
<path fill-rule="evenodd" clip-rule="evenodd" d="M5.70263 0H15.9674C16.6745 0 17.3018 0.0270877 17.8606 0.121894C20.8602 0.514663 21.67 2.19409 21.67 6.77187V14.8981C21.67 19.4759 20.8602 21.1553 17.8606 21.5481C17.3018 21.6429 16.6745 21.67 15.9674 21.67H5.70263C4.99551 21.67 4.36822 21.6429 3.80936 21.5481C0.809774 21.1553 0 19.4759 0 14.8981V6.77187C0 2.19409 0.809774 0.514663 3.80936 0.121894C4.36822 0.0270877 4.99551 0 5.70263 0ZM5.57895 5H8.42105C8.61684 5 8.79053 5.0075 8.94526 5.03375C9.77579 5.1425 10 5.6075 10 6.875V9.125C10 10.3925 9.77579 10.8575 8.94526 10.9662C8.79053 10.9925 8.61684 11 8.42105 11H5.57895C5.38316 11 5.20947 10.9925 5.05474 10.9662C4.22421 10.8575 4 10.3925 4 9.125V6.875C4 5.6075 4.22421 5.1425 5.05474 5.03375C5.20947 5.0075 5.38316 5 5.57895 5ZM12 9C11.4477 9 11 9.44771 11 10C11 10.5523 11.4477 11 12 11H16.5C17.0523 11 17.5 10.5523 17.5 10C17.5 9.44771 17.0523 9 16.5 9H12ZM11 6C11 5.44772 11.4477 5 12 5H16.5C17.0523 5 17.5 5.44772 17.5 6C17.5 6.55228 17.0523 7 16.5 7H12C11.4477 7 11 6.55228 11 6ZM5 14.75C4.30964 14.75 3.75 15.3096 3.75 16C3.75 16.6904 4.30964 17.25 5 17.25H5.022H16C16.6904 17.25 17.25 16.6904 17.25 16C17.25 15.3096 16.6904 14.75 16 14.75H5.022H5Z" fill="#F54748"/>
</svg>
