<svg width="26" height="26" viewBox="0 0 26 26" fill="none" xmlns="http://www.w3.org/2000/svg">
<path d="M7.70263 1.99908H17.9674C18.6745 1.99908 19.3018 2.02617 19.8606 2.12098C22.8602 2.51375 23.67 4.19317 23.67 8.77096V16.8972C23.67 21.475 22.8602 23.1544 19.8606 23.5472C19.3018 23.642 18.6745 23.6691 17.9674 23.6691H7.70263C6.99551 23.6691 6.36822 23.642 5.80936 23.5472C2.80977 23.1544 2 21.475 2 16.8972V8.77096C2 4.19317 2.80977 2.51375 5.80936 2.12098C6.36822 2.02617 6.99551 1.99908 7.70263 1.99908Z" stroke="#CCCED3" stroke-width="2" stroke-linecap="round" stroke-linejoin="round"/>
<path d="M7.57895 6.99908H10.4211C10.6168 6.99908 10.7905 7.00658 10.9453 7.03283C11.7758 7.14158 12 7.60658 12 8.87408V11.1241C12 12.3916 11.7758 12.8566 10.9453 12.9653C10.7905 12.9916 10.6168 12.9991 10.4211 12.9991H7.57895C7.38316 12.9991 7.20947 12.9916 7.05474 12.9653C6.22421 12.8566 6 12.3916 6 11.1241V8.87408C6 7.60658 6.22421 7.14158 7.05474 7.03283C7.20947 7.00658 7.38316 6.99908 7.57895 6.99908Z" fill="#CCCED3"/>
<path d="M14 11.9991L18.5 11.9991" stroke="#CCCED3" stroke-width="2" stroke-linecap="round" stroke-linejoin="round"/>
<path d="M14 7.99908H18.5" stroke="#CCCED3" stroke-width="2" stroke-linecap="round" stroke-linejoin="round"/>
<path d="M7 17.9991H7.022L18 17.9991" stroke="#CCCED3" stroke-width="2" stroke-linecap="round" stroke-linejoin="round"/>
</svg>
