<svg width="31" height="31" viewBox="0 0 31 31" fill="none" xmlns="http://www.w3.org/2000/svg">
<path d="M27.9769 13.485L26.7111 18.8842C25.6261 23.5471 23.4819 25.4329 19.4519 25.0454C18.8061 24.9937 18.1086 24.8775 17.3594 24.6967L15.1894 24.18C9.80317 22.9012 8.13692 20.2404 9.40275 14.8412L10.6686 9.42917C10.9269 8.33125 11.2369 7.37541 11.6244 6.5875C13.1357 3.46166 15.7061 2.62208 20.0203 3.6425L22.1773 4.14625C27.5894 5.41208 29.2428 8.08583 27.9769 13.485Z" stroke="#ADB3BC" stroke-width="3" stroke-linecap="round" stroke-linejoin="round"/>
<path d="M19.4527 25.0454C18.6519 25.5879 17.6444 26.04 16.4173 26.4404L14.3764 27.1121C9.24853 28.7654 6.54895 27.3833 4.8827 22.2554L3.22936 17.1533C1.57603 12.0254 2.9452 9.31291 8.07311 7.65958L10.1139 6.98791C10.6435 6.81999 11.1473 6.67791 11.6252 6.58749C11.2377 7.37541 10.9277 8.33124 10.6694 9.42916L9.40353 14.8412C8.1377 20.2404 9.80395 22.9012 15.1902 24.18L17.3602 24.6967C18.1094 24.8775 18.8069 24.9937 19.4527 25.0454Z" stroke="#ADB3BC" stroke-width="3" stroke-linecap="round" stroke-linejoin="round"/>
<path d="M16.3267 11.0179L22.5912 12.6067" stroke="#ADB3BC" stroke-width="3" stroke-linecap="round" stroke-linejoin="round"/>
<path d="M15.0605 16.0167L18.8064 16.9725" stroke="#ADB3BC" stroke-width="3" stroke-linecap="round" stroke-linejoin="round"/>
</svg>
