<svg width="21" height="22" viewBox="0 0 21 22" fill="none" xmlns="http://www.w3.org/2000/svg">
<path d="M10.5386 6.37219V9.18988" stroke="#292D32" stroke-width="2" stroke-miterlimit="10" stroke-linecap="round"/>
<path d="M10.5552 2.61536C7.44138 2.61536 4.91984 5.13689 4.91984 8.25074V10.0277C4.91984 10.603 4.68292 11.4661 4.38676 11.9569L3.31215 13.7507C2.65215 14.8592 3.10907 16.0946 4.32753 16.5007C8.37215 17.8461 12.7468 17.8461 16.7914 16.5007C17.9337 16.12 18.4245 14.783 17.8068 13.7507L16.7321 11.9569C16.436 11.4661 16.1991 10.5946 16.1991 10.0277V8.25074C16.1906 5.15382 13.6521 2.61536 10.5552 2.61536Z" fill="white" stroke="#292D32" stroke-width="2" stroke-miterlimit="10" stroke-linecap="round"/>
<path d="M13.3558 16.8477C13.3558 18.3961 12.0866 19.6653 10.5382 19.6653C9.76815 19.6653 9.05738 19.3438 8.54969 18.8361C8.042 18.3284 7.72046 17.6177 7.72046 16.8477" fill="white"/>
<path d="M13.3558 16.8477C13.3558 18.3961 12.0866 19.6653 10.5382 19.6653C9.76815 19.6653 9.05738 19.3438 8.54969 18.8361C8.042 18.3284 7.72046 17.6177 7.72046 16.8477" stroke="#292D32" stroke-width="2" stroke-miterlimit="10"/>
</svg>
