<svg width="29" height="29" viewBox="0 0 29 29" fill="none" xmlns="http://www.w3.org/2000/svg">
<path opacity="0.4" d="M21.1875 22.1998H20.2929C19.3512 22.1998 18.4567 22.5647 17.7975 23.2238L15.7847 25.2131C14.8665 26.1195 13.3717 26.1195 12.4536 25.2131L10.4407 23.2238C9.78156 22.5647 8.87521 22.1998 7.94531 22.1998H7.0625C5.10854 22.1998 3.53125 20.6343 3.53125 18.7039V5.86187C3.53125 3.93145 5.10854 2.36597 7.0625 2.36597H21.1875C23.1415 2.36597 24.7188 3.93145 24.7188 5.86187V18.7039C24.7188 20.6225 23.1415 22.1998 21.1875 22.1998Z" fill="#AB58C8"/>
<path d="M14.1249 12.2534C15.6396 12.2534 16.8676 11.0256 16.8676 9.51087C16.8676 7.99618 15.6396 6.76825 14.1249 6.76825C12.6102 6.76825 11.3823 7.99618 11.3823 9.51087C11.3823 11.0256 12.6102 12.2534 14.1249 12.2534Z" fill="#AB58C8"/>
<path d="M17.2794 17.7269C18.2329 17.7269 18.7861 16.6675 18.2564 15.8789C17.456 14.69 15.9022 13.8896 14.1248 13.8896C12.3474 13.8896 10.7937 14.69 9.99327 15.8789C9.46358 16.6675 10.0168 17.7269 10.9703 17.7269H17.2794Z" fill="#AB58C8"/>
</svg>
