<svg width="49" height="49" viewBox="0 0 49 49" fill="none" xmlns="http://www.w3.org/2000/svg">
<path d="M48.75 24.375C48.75 37.8369 37.8369 48.75 24.375 48.75C10.9131 48.75 0 37.8369 0 24.375C0 10.9131 10.9131 0 24.375 0C37.8369 0 48.75 10.9131 48.75 24.375ZM5.38215 24.375C5.38215 34.8645 13.8855 43.3679 24.375 43.3679C34.8645 43.3679 43.3679 34.8645 43.3679 24.375C43.3679 13.8855 34.8645 5.38215 24.375 5.38215C13.8855 5.38215 5.38215 13.8855 5.38215 24.375Z" fill="#58C863"/>
<path d="M32.0831 16.5461C32.4683 16.1603 32.9917 15.9416 33.5389 15.9376C34.0862 15.9336 34.6128 16.1447 35.0036 16.5247C35.3945 16.9048 35.6178 17.4229 35.6248 17.9659C35.6318 18.5088 35.4219 19.0325 35.041 19.4223L24.0192 33.0936C23.8299 33.2959 23.6014 33.4582 23.3474 33.5709C23.0934 33.6836 22.8192 33.7444 22.541 33.7496C22.2628 33.7548 21.9864 33.7044 21.7283 33.6012C21.4702 33.4981 21.2357 33.3444 21.0388 33.1494L13.7313 25.9016C13.343 25.5161 13.1249 24.9933 13.125 24.4483C13.1251 23.9033 13.3435 23.3806 13.732 22.9953C14.1205 22.61 14.6474 22.3936 15.1967 22.3938C15.746 22.3939 16.2727 22.6105 16.6611 22.996L22.4405 28.7318L32.0283 16.6102C32.0457 16.5882 32.0645 16.5672 32.0845 16.5475L32.0831 16.5461Z" fill="#58C863"/>
</svg>
