<svg width="29" height="29" viewBox="0 0 29 29" fill="none" xmlns="http://www.w3.org/2000/svg">
<path opacity="0.4" d="M24.8129 10.0994V18.1506C24.8129 19.469 24.1066 20.6932 22.9649 21.3641L15.973 25.4015C14.8312 26.0607 13.4187 26.0607 12.2652 25.4015L5.27331 21.3641C4.13154 20.705 3.42529 19.4808 3.42529 18.1506V10.0994C3.42529 8.7811 4.13154 7.55689 5.27331 6.88595L12.2652 2.84856C13.407 2.1894 14.8195 2.1894 15.973 2.84856L22.9649 6.88595C24.1066 7.55689 24.8129 8.76933 24.8129 10.0994Z" fill="#2FA9ED"/>
<path d="M14.1251 14.125C15.6397 14.125 16.8677 12.8971 16.8677 11.3824C16.8677 9.86769 15.6397 8.63983 14.1251 8.63983C12.6104 8.63983 11.3824 9.86769 11.3824 11.3824C11.3824 12.8971 12.6104 14.125 14.1251 14.125Z" fill="#2FA9ED"/>
<path d="M17.2797 19.6102C18.2331 19.6102 18.7863 18.5509 18.2566 17.7622C17.4562 16.5734 15.9025 15.7729 14.1251 15.7729C12.3477 15.7729 10.7939 16.5734 9.99352 17.7622C9.46383 18.5509 10.0171 19.6102 10.9705 19.6102H17.2797Z" fill="#2FA9ED"/>
</svg>
