<svg width="40" height="40" viewBox="0 0 40 40" fill="none" xmlns="http://www.w3.org/2000/svg">
<path d="M19.9997 3.33337C15.633 3.33337 12.083 6.88337 12.083 11.25C12.083 15.5334 15.433 19 19.7997 19.15C19.933 19.1334 20.0663 19.1334 20.1663 19.15C20.1997 19.15 20.2163 19.15 20.2497 19.15C20.2663 19.15 20.2663 19.15 20.283 19.15C24.5497 19 27.8997 15.5334 27.9163 11.25C27.9163 6.88337 24.3663 3.33337 19.9997 3.33337Z" fill="#C4C4C4"/>
<path d="M28.4666 23.5833C23.8166 20.4833 16.2333 20.4833 11.5499 23.5833C9.43327 25 8.2666 26.9166 8.2666 28.9666C8.2666 31.0166 9.43327 32.9166 11.5333 34.3166C13.8666 35.8833 16.9333 36.6666 19.9999 36.6666C23.0666 36.6666 26.1333 35.8833 28.4666 34.3166C30.5666 32.9 31.7333 31 31.7333 28.9333C31.7166 26.8833 30.5666 24.9833 28.4666 23.5833Z" fill="#C4C4C4"/>
</svg>
