<svg width="17" height="28" viewBox="0 0 17 28" fill="none" xmlns="http://www.w3.org/2000/svg">
<path d="M7.08333 19.6C6.70761 19.6 6.34728 19.7475 6.0816 20.01C5.81592 20.2726 5.66667 20.6287 5.66667 21C5.66667 21.3713 5.81592 21.7274 6.0816 21.99C6.34728 22.2525 6.70761 22.4 7.08333 22.4H9.91667C10.2924 22.4 10.6527 22.2525 10.9184 21.99C11.1841 21.7274 11.3333 21.3713 11.3333 21C11.3333 20.6287 11.1841 20.2726 10.9184 20.01C10.6527 19.7475 10.2924 19.6 9.91667 19.6H7.08333ZM4.25 0C3.12283 0 2.04183 0.442499 1.2448 1.23015C0.447767 2.0178 0 3.08609 0 4.2V23.8C0 24.9139 0.447767 25.9822 1.2448 26.7698C2.04183 27.5575 3.12283 28 4.25 28H12.75C13.8772 28 14.9582 27.5575 15.7552 26.7698C16.5522 25.9822 17 24.9139 17 23.8V4.2C17 3.08609 16.5522 2.0178 15.7552 1.23015C14.9582 0.442499 13.8772 0 12.75 0H4.25ZM2.83333 4.2C2.83333 3.8287 2.98259 3.4726 3.24827 3.21005C3.51394 2.9475 3.87428 2.8 4.25 2.8H12.75C13.1257 2.8 13.4861 2.9475 13.7517 3.21005C14.0174 3.4726 14.1667 3.8287 14.1667 4.2V23.8C14.1667 24.1713 14.0174 24.5274 13.7517 24.7899C13.4861 25.0525 13.1257 25.2 12.75 25.2H4.25C3.87428 25.2 3.51394 25.0525 3.24827 24.7899C2.98259 24.5274 2.83333 24.1713 2.83333 23.8V4.2Z" fill="#D1D5DB"/>
</svg>
