<svg width="29" height="29" viewBox="0 0 29 29" fill="none" xmlns="http://www.w3.org/2000/svg">
<path d="M14.6936 13.1346C14.5728 13.1225 14.4278 13.1225 14.2948 13.1346C11.419 13.0379 9.13525 10.6817 9.13525 7.78166C9.13525 4.82124 11.5278 2.41666 14.5003 2.41666C17.4607 2.41666 19.8653 4.82124 19.8653 7.78166C19.8532 10.6817 17.5694 13.0379 14.6936 13.1346Z" stroke="#CCCED3" stroke-width="1.5" stroke-linecap="round" stroke-linejoin="round"/>
<path d="M8.65162 17.5933C5.72745 19.5508 5.72745 22.7408 8.65162 24.6863C11.9745 26.9096 17.4241 26.9096 20.747 24.6863C23.6712 22.7288 23.6712 19.5388 20.747 17.5933C17.4362 15.3821 11.9866 15.3821 8.65162 17.5933Z" stroke="#CCCED3" stroke-width="1.5" stroke-linecap="round" stroke-linejoin="round"/>
</svg>
