<svg width="35" height="35" viewBox="0 0 35 35" fill="none" xmlns="http://www.w3.org/2000/svg">
<path d="M32.0833 8.75002V12.2792C32.0833 14.5833 30.6249 16.0417 28.3208 16.0417H23.3333V5.84793C23.3333 4.22918 24.6603 2.9021 26.2791 2.91668C27.8687 2.93127 29.327 3.57293 30.377 4.62293C31.427 5.68752 32.0833 7.14585 32.0833 8.75002Z" fill="#2FA9ED"/>
<path opacity="0.4" d="M2.91675 10.2084V30.625C2.91675 31.8354 4.28758 32.5209 5.25008 31.7917L7.74383 29.925C8.32716 29.4875 9.14383 29.5459 9.66883 30.0709L12.0897 32.5063C12.6584 33.075 13.5917 33.075 14.1605 32.5063L16.6105 30.0563C17.1209 29.5459 17.9376 29.4875 18.5063 29.925L21.0001 31.7917C21.9626 32.5063 23.3334 31.8209 23.3334 30.625V5.83335C23.3334 4.22919 24.6459 2.91669 26.2501 2.91669H10.2084H8.75008C4.37508 2.91669 2.91675 5.5271 2.91675 8.75002V10.2084Z" fill="#2FA9ED"/>
<path d="M17.5 17.8792H13.125C12.5271 17.8792 12.0312 18.375 12.0312 18.973C12.0312 19.5709 12.5271 20.0667 13.125 20.0667H17.5C18.0979 20.0667 18.5938 19.5709 18.5938 18.973C18.5938 18.375 18.0979 17.8792 17.5 17.8792Z" fill="#2FA9ED"/>
<path d="M13.125 14.2333H17.5C18.0979 14.2333 18.5938 13.7375 18.5938 13.1396C18.5938 12.5417 18.0979 12.0458 17.5 12.0458H13.125C12.5271 12.0458 12.0312 12.5417 12.0312 13.1396C12.0312 13.7375 12.5271 14.2333 13.125 14.2333Z" fill="#2FA9ED"/>
<path d="M8.70614 11.6813C7.88947 11.6813 7.2478 12.3375 7.2478 13.1396C7.2478 13.9417 7.90405 14.5979 8.70614 14.5979C9.50822 14.5979 10.1645 13.9417 10.1645 13.1396C10.1645 12.3375 9.50822 11.6813 8.70614 11.6813Z" fill="#2FA9ED"/>
<path d="M8.70614 17.5146C7.88947 17.5146 7.2478 18.1708 7.2478 18.9729C7.2478 19.775 7.90405 20.4313 8.70614 20.4313C9.50822 20.4313 10.1645 19.775 10.1645 18.9729C10.1645 18.1708 9.50822 17.5146 8.70614 17.5146Z" fill="#2FA9ED"/>
</svg>
