<svg width="16" height="16" viewBox="0 0 16 16" fill="none" xmlns="http://www.w3.org/2000/svg">
<path d="M14.2085 4.19788H10.3335" stroke="#292D32" stroke-width="2" stroke-miterlimit="10" stroke-linecap="round" stroke-linejoin="round"/>
<path d="M3.87484 4.19788H1.2915" stroke="#292D32" stroke-width="2" stroke-miterlimit="10" stroke-linecap="round" stroke-linejoin="round"/>
<path d="M6.45817 6.45833C7.70656 6.45833 8.71859 5.44631 8.71859 4.19792C8.71859 2.94952 7.70656 1.9375 6.45817 1.9375C5.20978 1.9375 4.19775 2.94952 4.19775 4.19792C4.19775 5.44631 5.20978 6.45833 6.45817 6.45833Z" stroke="#292D32" stroke-width="2" stroke-miterlimit="10" stroke-linecap="round" stroke-linejoin="round"/>
<path d="M14.2083 11.3021H11.625" stroke="#292D32" stroke-width="2" stroke-miterlimit="10" stroke-linecap="round" stroke-linejoin="round"/>
<path d="M5.1665 11.3021H1.2915" stroke="#292D32" stroke-width="2" stroke-miterlimit="10" stroke-linecap="round" stroke-linejoin="round"/>
<path d="M9.04167 13.5625C10.2901 13.5625 11.3021 12.5504 11.3021 11.302C11.3021 10.0536 10.2901 9.04163 9.04167 9.04163C7.79327 9.04163 6.78125 10.0536 6.78125 11.302C6.78125 12.5504 7.79327 13.5625 9.04167 13.5625Z" stroke="#292D32" stroke-width="2" stroke-miterlimit="10" stroke-linecap="round" stroke-linejoin="round"/>
</svg>
