<svg width="22" height="22" viewBox="0 0 22 22" fill="none" xmlns="http://www.w3.org/2000/svg">
<g clip-path="url(#clip0)">
<path d="M16.4578 9.77447C17.0588 8.80357 17.3893 7.68964 17.415 6.54806C17.4407 5.40649 17.1608 4.27881 16.6041 3.28184C16.0474 2.28487 15.2342 1.45488 14.2489 0.877855C13.2636 0.300832 12.1419 -0.00223506 11 5.09846e-05H4.58333C4.0971 5.09846e-05 3.63079 0.193205 3.28697 0.537022C2.94315 0.880839 2.75 1.34715 2.75 1.83338V20.1667C2.75 20.6529 2.94315 21.1193 3.28697 21.4631C3.63079 21.8069 4.0971 22 4.58333 22H13.75C15.2106 22.0016 16.628 21.5043 17.7675 20.5906C18.9071 19.6768 19.7004 18.4014 20.0163 16.9753C20.3321 15.5492 20.1516 14.058 19.5045 12.7486C18.8574 11.4391 17.7825 10.3898 16.4578 9.77447ZM6.41667 3.66672H11C11.7293 3.66672 12.4288 3.95645 12.9445 4.47217C13.4603 4.9879 13.75 5.68737 13.75 6.41672C13.75 7.14606 13.4603 7.84554 12.9445 8.36126C12.4288 8.87699 11.7293 9.16672 11 9.16672H6.41667V3.66672ZM13.75 18.3334H6.41667V12.8334H13.75C14.4793 12.8334 15.1788 13.1231 15.6945 13.6388C16.2103 14.1546 16.5 14.854 16.5 15.5834C16.5 16.3127 16.2103 17.0122 15.6945 17.5279C15.1788 18.0437 14.4793 18.3334 13.75 18.3334Z" fill="#ADB3BC"/>
</g>
<defs>
<clipPath id="clip0">
<rect width="22" height="22" fill="white"/>
</clipPath>
</defs>
</svg>
