<svg width="230" height="192" viewBox="0 0 230 192" fill="none" xmlns="http://www.w3.org/2000/svg">
<path d="M172 99.6363C171.991 119.653 160.113 138.047 141.078 147.522C122.044 156.996 98.9293 156.019 80.905 144.979C57.1027 126.424 53.062 93.889 71.6939 70.8117C90.3257 47.7345 125.158 42.1309 151.099 58.0377C164.365 68.3574 172.018 83.5888 172 99.6363Z" fill="#FFC380"/>
<path d="M166 96.7135C165.995 115.596 155.596 132.949 138.93 141.887C122.263 150.826 102.024 149.906 86.241 139.491C65.4547 121.975 61.9447 91.3296 78.2343 69.585C94.5239 47.8404 124.971 42.5286 147.687 57.4682C159.306 67.2037 166.011 81.5728 166 96.7135Z" fill="#FFC380"/>
<path fill-rule="evenodd" clip-rule="evenodd" d="M172 96.5029C171.997 123.471 153.251 146.814 126.919 152.638C100.587 158.461 73.7453 145.202 62.3697 120.75C50.9941 96.2984 58.1417 67.2263 79.5584 50.8366C100.975 34.447 130.905 35.1445 151.535 52.5141C164.513 63.4393 172.003 79.5387 172 96.5029V96.5029Z" stroke="white" stroke-width="5"/>
<path d="M128.916 78.2641C129.687 77.4629 130.733 77.0084 131.828 77.0001C132.922 76.9918 133.976 77.4303 134.757 78.2198C135.539 79.0093 135.986 80.0855 136 81.2133C136.014 82.3411 135.594 83.4288 134.832 84.2387L112.788 112.637C112.41 113.057 111.953 113.394 111.445 113.628C110.937 113.862 110.388 113.988 109.832 113.999C109.276 114.01 108.723 113.905 108.207 113.691C107.69 113.477 107.221 113.158 106.828 112.752L92.2126 97.6973C91.4359 96.8966 90.9997 95.8107 91 94.6786C91.0003 93.5465 91.4369 92.4608 92.214 91.6605C92.991 90.8601 94.0447 90.4107 95.1433 90.4109C96.2419 90.4112 97.2955 90.8612 98.0721 91.6619L109.631 103.576L128.807 78.3974C128.841 78.3516 128.879 78.308 128.919 78.267L128.916 78.2641Z" fill="white"/>
<ellipse cx="212" cy="70" rx="18" ry="17" fill="#FFC380"/>
<ellipse cx="17" cy="164.5" rx="17" ry="17.5" fill="#FFC380"/>
<ellipse cx="32" cy="25" rx="9" ry="8" fill="#FFC380"/>
<ellipse cx="130" cy="8.5" rx="9" ry="8.5" fill="#FFC380"/>
<ellipse cx="146.5" cy="183.5" rx="7.5" ry="8.5" fill="#FFC380"/>
</svg>
