<svg width="31" height="31" viewBox="0 0 31 31" fill="none" xmlns="http://www.w3.org/2000/svg">
<path d="M23.25 24.3608H22.2683C21.235 24.3608 20.2533 24.7612 19.53 25.4846L17.3212 27.6675C16.3137 28.6621 14.6734 28.6621 13.6659 27.6675L11.4571 25.4846C10.7337 24.7612 9.73917 24.3608 8.71875 24.3608H7.75C5.60583 24.3608 3.875 22.6429 3.875 20.5246V6.41958C3.875 4.30124 5.60583 2.58333 7.75 2.58333H23.25C25.3942 2.58333 27.125 4.30124 27.125 6.41958V20.5117C27.125 22.63 25.3942 24.3608 23.25 24.3608Z" stroke="#ADB3BC" stroke-width="2.5" stroke-miterlimit="10" stroke-linecap="round" stroke-linejoin="round"/>
<path d="M15.5904 11.5604C15.5387 11.5604 15.4612 11.5604 15.3966 11.5604C14.0404 11.5088 12.9683 10.4108 12.9683 9.04167C12.9683 7.64667 14.092 6.52292 15.487 6.52292C16.882 6.52292 18.0058 7.65959 18.0058 9.04167C18.0187 10.4108 16.9466 11.5217 15.5904 11.5604Z" stroke="#ADB3BC" stroke-width="2.5" stroke-linecap="round" stroke-linejoin="round"/>
<path d="M11.9476 15.4483C10.2297 16.5979 10.2297 18.4708 11.9476 19.6204C13.898 20.925 17.1014 20.925 19.0518 19.6204C20.7697 18.4708 20.7697 16.5979 19.0518 15.4483C17.1014 14.1567 13.911 14.1567 11.9476 15.4483Z" stroke="#ADB3BC" stroke-width="2.5" stroke-linecap="round" stroke-linejoin="round"/>
</svg>
