<svg width="16" height="16" viewBox="0 0 16 16" fill="none" xmlns="http://www.w3.org/2000/svg">
<path d="M13.5625 3.8621C11.4119 3.64898 9.24833 3.53918 7.09125 3.53918C5.8125 3.53918 4.53375 3.60377 3.255 3.73293L1.9375 3.8621" stroke="white" stroke-width="2" stroke-linecap="round" stroke-linejoin="round"/>
<path d="M5.48975 3.20975L5.63183 2.36371C5.73516 1.75017 5.81266 1.29163 6.90412 1.29163H8.5962C9.68766 1.29163 9.77162 1.776 9.8685 2.37017L10.0106 3.20975" stroke="white" stroke-width="2" stroke-linecap="round" stroke-linejoin="round"/>
<path d="M12.1741 5.90295L11.7543 12.4065C11.6833 13.4205 11.6251 14.2084 9.82326 14.2084H5.67701C3.87513 14.2084 3.81701 13.4205 3.74596 12.4065L3.32617 5.90295" stroke="white" stroke-width="2" stroke-linecap="round" stroke-linejoin="round"/>
<path d="M6.67139 10.6562H8.82201" stroke="white" stroke-width="2" stroke-linecap="round" stroke-linejoin="round"/>
<path d="M6.13525 8.07288H9.36442" stroke="white" stroke-width="2" stroke-linecap="round" stroke-linejoin="round"/>
</svg>
