<svg width="29" height="29" viewBox="0 0 29 29" fill="none" xmlns="http://www.w3.org/2000/svg">
<path d="M14.5003 2.41666C11.3345 2.41666 8.76074 4.99041 8.76074 8.15624C8.76074 11.2617 11.1895 13.775 14.3553 13.8837C14.452 13.8717 14.5487 13.8717 14.6212 13.8837C14.6453 13.8837 14.6574 13.8837 14.6816 13.8837C14.6937 13.8837 14.6937 13.8837 14.7057 13.8837C17.7991 13.775 20.2278 11.2617 20.2399 8.15624C20.2399 4.99041 17.6662 2.41666 14.5003 2.41666Z" fill="#FF941A"/>
<path d="M20.6382 17.0979C17.2669 14.8504 11.769 14.8504 8.37358 17.0979C6.839 18.125 5.99316 19.5146 5.99316 21.0008C5.99316 22.4871 6.839 23.8646 8.3615 24.8796C10.0532 26.0154 12.2765 26.5833 14.4998 26.5833C16.7232 26.5833 18.9465 26.0154 20.6382 24.8796C22.1607 23.8525 23.0065 22.475 23.0065 20.9767C22.9944 19.4904 22.1607 18.1129 20.6382 17.0979Z" fill="#FF941A"/>
</svg>
