<svg width="22" height="28" viewBox="0 0 22 28" fill="none" xmlns="http://www.w3.org/2000/svg">
<path d="M11 0C9.54131 0 8.14236 0.579463 7.11091 1.61091C6.07946 2.64236 5.5 4.04131 5.5 5.5C5.5 6.95869 6.07946 8.35764 7.11091 9.38909C8.14236 10.4205 9.54131 11 11 11C12.4587 11 13.8576 10.4205 14.8891 9.38909C15.9205 8.35764 16.5 6.95869 16.5 5.5C16.5 4.04131 15.9205 2.64236 14.8891 1.61091C13.8576 0.579463 12.4587 0 11 0ZM8.25 5.5C8.25 4.77065 8.53973 4.07118 9.05546 3.55546C9.57118 3.03973 10.2707 2.75 11 2.75C11.7293 2.75 12.4288 3.03973 12.9445 3.55546C13.4603 4.07118 13.75 4.77065 13.75 5.5C13.75 6.22935 13.4603 6.92882 12.9445 7.44454C12.4288 7.96027 11.7293 8.25 11 8.25C10.2707 8.25 9.57118 7.96027 9.05546 7.44454C8.53973 6.92882 8.25 6.22935 8.25 5.5Z" fill="#D1D5DB"/>
<path d="M17.875 13.75H4.125C3.03098 13.75 1.98177 14.1846 1.20818 14.9582C0.434597 15.7318 0 16.781 0 17.875C0 20.944 1.26225 23.4025 3.333 25.0662C5.37075 26.7025 8.10425 27.5 11 27.5C13.8958 27.5 16.6292 26.7025 18.667 25.0662C20.735 23.4025 22 20.944 22 17.875C22 16.781 21.5654 15.7318 20.7918 14.9582C20.0182 14.1846 18.969 13.75 17.875 13.75ZM4.125 16.5H17.875C18.2397 16.5 18.5894 16.6449 18.8473 16.9027C19.1051 17.1606 19.25 17.5103 19.25 17.875C19.25 20.1217 18.3562 21.7882 16.9455 22.9213C15.499 24.0817 13.42 24.75 11 24.75C8.58 24.75 6.501 24.0817 5.0545 22.9213C3.64375 21.7882 2.75 20.1217 2.75 17.875C2.75 17.5103 2.89487 17.1606 3.15273 16.9027C3.41059 16.6449 3.76033 16.5 4.125 16.5Z" fill="#D1D5DB"/>
</svg>
