<svg width="35" height="35" viewBox="0 0 35 35" fill="none" xmlns="http://www.w3.org/2000/svg">
<path opacity="0.8" d="M18.8124 3.67499L18.7687 3.77707L14.5395 13.5917H10.3833C9.39159 13.5917 8.45825 13.7812 7.58325 14.1604L10.1353 8.06457L10.1937 7.93332L10.2812 7.69999C10.3249 7.5979 10.3541 7.5104 10.3978 7.43749C12.3083 3.01874 14.4666 2.01249 18.8124 3.67499Z" fill="#FFB61D"/>
<path d="M26.6729 13.8834C26.0166 13.6938 25.3312 13.5917 24.6166 13.5917H14.5396L18.7687 3.77713L18.8125 3.67505C19.0166 3.74797 19.2354 3.85005 19.4541 3.92297L22.677 5.27922C24.4708 6.02296 25.725 6.79588 26.4979 7.72922C26.6291 7.90422 26.7458 8.06463 26.8625 8.25421C26.9937 8.45838 27.0958 8.66255 27.1541 8.8813C27.2125 9.01255 27.2562 9.12921 27.2854 9.26046C27.6645 10.5 27.4312 12.0021 26.6729 13.8834Z" fill="#FFB61D"/>
<path opacity="0.4" d="M31.7333 20.7083V23.5521C31.7333 23.8438 31.7187 24.1354 31.7041 24.4125C31.427 29.5167 28.5833 32.0833 23.1874 32.0833H11.8124C11.4479 32.0833 11.1124 32.0542 10.777 32.0104C6.13952 31.7042 3.66035 29.225 3.33952 24.5875C3.29577 24.2375 3.2666 23.9021 3.2666 23.5521V20.7083C3.2666 17.7771 5.04577 15.2542 7.58327 14.1604C8.45827 13.7813 9.3916 13.5917 10.3833 13.5917H24.6166C25.3312 13.5917 26.0166 13.6938 26.6729 13.8833C29.5895 14.7729 31.7333 17.4854 31.7333 20.7083Z" fill="#FFB61D"/>
<path opacity="0.6" d="M10.1354 8.06464L7.58327 14.1605C5.04577 15.2542 3.2666 17.7771 3.2666 20.7084V16.4355C3.2666 12.2938 6.21244 8.83755 10.1354 8.06464Z" fill="#FFB61D"/>
<path opacity="0.6" d="M31.7333 16.4354V20.7083C31.7333 17.4854 29.5895 14.7729 26.6729 13.8833C27.4312 12.0021 27.6645 10.5 27.2853 9.26039C27.2562 9.12914 27.2124 9.01248 27.1541 8.88123C29.8812 10.2958 31.7333 13.1687 31.7333 16.4354Z" fill="#FFB61D"/>
<path d="M21.1459 24.4271H13.8542C13.2563 24.4271 12.7605 23.9312 12.7605 23.3333C12.7605 22.7354 13.2563 22.2396 13.8542 22.2396H21.1459C21.7438 22.2396 22.2397 22.7354 22.2397 23.3333C22.2397 23.9312 21.7438 24.4271 21.1459 24.4271Z" fill="#FFB61D"/>
</svg>
